<?xml version="1.0" standalone="no"?>
<!DOCTYPE svg PUBLIC "-//W3C//DTD SVG 20010904//EN"
 "http://www.w3.org/TR/2001/REC-SVG-20010904/DTD/svg10.dtd">
<svg version="1.0" xmlns="http://www.w3.org/2000/svg"
 width="874.000000pt" height="874.000000pt" viewBox="0 0 874.000000 874.000000"
 preserveAspectRatio="xMidYMid meet">
<metadata>
Created by potrace 1.11, written by Peter Selinger 2001-2013
</metadata>
<g transform="translate(0.000000,874.000000) scale(0.100000,-0.100000)"
fill="#000000" stroke="none">
<path d="M4561 8558 c-11 -29 -21 -191 -26 -428 -15 -662 -18 -723 -40 -1120
-4 -69 -64 -256 -131 -405 -10 -22 -18 -42 -19 -45 -1 -3 -9 -22 -18 -43 -47
-109 -72 -231 -70 -347 4 -188 23 -228 166 -345 18 -14 48 -31 157 -88 170
-89 262 -143 268 -158 2 -5 9 -9 15 -9 32 -1 219 -189 279 -280 46 -70 136
-260 123 -260 -3 0 0 -12 6 -27 11 -29 16 -48 25 -93 2 -14 6 -30 9 -37 7 -20
19 -154 19 -208 -1 -82 -13 -206 -28 -267 -7 -32 -11 -58 -8 -58 2 0 -1 -7 -8
-15 -7 -8 -10 -15 -7 -15 4 0 -1 -19 -9 -42 -9 -24 -17 -50 -19 -58 -2 -8 -12
-39 -24 -67 -122 -308 -349 -571 -606 -701 -56 -29 -117 -55 -123 -53 -1 1
-15 -5 -30 -13 -33 -17 -241 -63 -297 -66 -161 -8 -301 5 -412 39 -18 5 -33 7
-33 4 0 -3 -6 -1 -12 4 -7 6 -31 16 -53 23 -59 19 -205 93 -266 136 -190 133
-318 280 -415 474 -26 52 -51 104 -55 115 -4 11 -14 39 -23 62 -9 24 -13 43
-10 43 4 0 2 6 -3 13 -6 6 -13 28 -17 47 -3 19 -9 46 -12 60 -3 14 -8 36 -10
50 -8 36 -13 393 -6 405 3 5 6 21 7 35 7 124 97 355 192 488 101 143 322 334
480 415 17 9 37 22 45 29 7 7 38 30 68 51 66 45 180 155 180 174 0 7 4 13 9
13 13 0 60 112 71 171 10 54 11 209 1 209 -3 0 -7 11 -7 24 -2 28 -44 116 -55
116 -4 0 -10 8 -13 18 -3 9 -21 33 -39 52 -77 82 -117 163 -131 260 -3 25 -8
59 -11 75 -12 78 -27 396 -29 617 -1 76 -3 138 -6 138 -3 0 -5 53 -6 118 -2
220 -26 601 -39 622 -3 5 -8 20 -10 32 -6 27 -52 77 -85 90 -35 14 -130 18
-176 8 -22 -5 -52 -11 -69 -14 -16 -2 -64 -14 -105 -26 -41 -11 -84 -23 -96
-25 -16 -4 -168 -52 -252 -80 -7 -3 -14 -3 -16 -2 -1 1 -10 -4 -19 -12 -10 -7
-17 -10 -17 -6 0 4 -6 3 -12 -2 -7 -6 -38 -18 -68 -28 -30 -10 -79 -29 -110
-43 -30 -14 -59 -26 -65 -28 -30 -6 -393 -190 -405 -205 -3 -3 -15 -9 -27 -13
-13 -4 -23 -12 -23 -17 0 -5 -6 -9 -13 -9 -8 0 -23 -8 -35 -18 -11 -10 -37
-27 -56 -37 -20 -11 -36 -23 -36 -27 0 -5 -5 -8 -10 -8 -6 0 -16 -5 -23 -10
-7 -6 -37 -29 -67 -51 -66 -49 -121 -92 -175 -139 -65 -56 -248 -241 -296
-299 -24 -29 -54 -65 -67 -80 -12 -14 -35 -44 -49 -66 -15 -22 -33 -47 -40
-55 -19 -21 -87 -128 -150 -235 -29 -49 -134 -267 -161 -335 -33 -82 -66 -171
-68 -182 -1 -5 -3 -10 -4 -13 -1 -3 -4 -9 -5 -15 -1 -5 -4 -12 -5 -15 -1 -3
-3 -8 -4 -12 -2 -5 -9 -28 -16 -53 -8 -25 -15 -49 -15 -55 -1 -5 -4 -20 -9
-32 -4 -12 -9 -30 -11 -40 -2 -10 -9 -40 -15 -68 -19 -82 -36 -171 -44 -235
-3 -19 -7 -51 -10 -70 -6 -37 -13 -108 -22 -205 -6 -72 -6 -427 0 -505 11
-142 17 -209 21 -231 3 -13 8 -46 10 -74 6 -49 10 -76 20 -125 3 -14 7 -38 9
-55 18 -130 135 -573 158 -602 6 -7 8 -13 5 -13 -7 0 29 -102 54 -154 10 -22
19 -48 19 -58 0 -10 5 -18 10 -18 6 0 10 -6 10 -14 0 -14 38 -105 71 -169 10
-21 19 -44 19 -52 0 -8 5 -15 12 -15 6 0 9 -3 5 -6 -3 -4 5 -27 18 -53 13 -25
27 -58 31 -74 3 -15 10 -27 14 -27 5 0 12 -10 15 -22 4 -13 20 -50 35 -83 88
-186 240 -501 271 -558 5 -9 13 -25 18 -35 6 -9 26 -48 45 -87 34 -65 74 -140
124 -226 11 -20 26 -47 34 -60 7 -13 18 -31 24 -39 9 -11 11 -284 10 -1033 -1
-897 1 -1017 14 -1018 26 -2 1556 2 2589 6 547 2 997 8 1001 12 6 7 43 164 56
238 3 17 10 44 15 60 6 17 13 41 15 55 9 47 73 165 111 205 53 56 89 80 175
114 116 47 167 52 723 76 629 26 663 30 775 83 66 32 80 42 147 109 82 81 138
213 148 348 2 28 7 77 10 110 8 74 11 113 19 240 14 237 21 369 31 610 5 128
14 298 21 400 2 44 7 118 9 165 2 47 5 85 5 85 1 0 2 18 3 40 l2 40 50 7 c47
7 114 14 210 23 94 9 151 16 165 21 8 3 28 8 45 10 78 10 141 39 188 86 26 26
47 51 46 55 -1 4 0 10 1 13 17 45 20 184 4 236 -7 24 -10 44 -7 44 4 0 2 5 -5
12 -7 7 -12 20 -12 30 0 10 -4 26 -9 36 -5 9 -26 58 -47 107 -20 50 -79 177
-131 284 -51 107 -93 198 -93 202 0 5 -4 9 -10 9 -5 0 -10 5 -10 11 0 5 -36
84 -80 174 -44 90 -80 169 -80 174 0 6 -4 11 -10 11 -5 0 -10 6 -10 13 0 8
-13 41 -30 75 -16 34 -30 65 -30 67 0 3 -9 27 -21 53 -39 88 -46 107 -54 154
-8 44 -16 215 -20 423 -4 199 -10 345 -20 427 -3 32 -9 68 -30 181 -9 49 -73
251 -89 282 -9 17 -16 35 -16 41 0 6 -10 33 -22 60 -12 27 -21 52 -20 57 1 4
-3 7 -10 7 -6 0 -9 3 -5 6 7 7 -94 211 -139 281 -19 28 -34 56 -34 62 0 6 -4
11 -8 11 -5 0 -14 11 -20 25 -13 28 -64 99 -152 210 -175 222 -459 501 -700
688 -75 59 -160 117 -169 117 -6 0 -11 5 -11 10 0 6 -6 10 -14 10 -8 0 -16 4
-18 8 -4 12 -163 104 -277 161 -127 64 -309 135 -451 177 -63 19 -129 39 -147
45 -17 5 -44 12 -60 14 -43 6 -86 16 -93 20 -4 2 -20 6 -36 9 -166 29 -201 35
-214 40 -8 2 -40 8 -70 11 -56 7 -63 8 -138 19 -38 6 -43 5 -51 -16z"/>
<path d="M4057 5434 c-1 -1 -76 -4 -167 -7 -194 -7 -208 -9 -279 -45 -151 -75
-364 -365 -397 -537 -1 -5 -3 -12 -4 -15 -1 -3 -4 -14 -5 -25 -2 -11 -6 -36
-10 -55 -8 -42 -9 -223 -1 -265 3 -16 13 -57 22 -90 9 -33 17 -64 18 -70 5
-27 71 -156 113 -219 64 -96 202 -232 293 -287 91 -55 186 -93 285 -115 48
-11 254 -13 261 -3 3 5 10 7 15 3 5 -3 35 2 67 12 31 10 65 19 76 21 23 4 188
81 196 91 3 4 24 20 47 36 54 36 176 165 229 242 57 82 98 173 121 274 24 103
23 336 -1 449 -19 85 -94 239 -163 333 -46 62 -159 178 -174 178 -4 0 -14 6
-21 13 -44 42 -138 65 -303 73 -167 7 -216 9 -218 8z"/>
</g>
</svg>
