<svg id="svg" shape-rendering="geometricPrecision" xmlns="http://www.w3.org/2000/svg" xmlns:xlink="http://www.w3.org/1999/xlink" width="400" height="105.14285714285714" viewBox="0, 0, 400,105.14285714285714" version="1.1"><g id="svgg"><path id="path0" d="M30.085 3.931 C 4.952 11.789,-3.409 37.271,10.376 64.000 L 16.564 76.000 16.511 87.714 L 16.458 99.429 37.401 99.429 L 58.343 99.429 59.037 95.959 C 59.959 91.348,62.332 90.286,71.706 90.286 C 83.275 90.286,83.915 89.544,84.391 75.585 L 84.782 64.125 88.962 63.777 C 94.782 63.292,94.911 60.219,89.516 50.606 C 85.721 43.841,85.217 42.083,85.553 36.765 C 86.494 21.849,71.704 5.419,54.920 2.735 L 50.286 1.994 50.279 11.568 C 50.274 17.826,49.680 22.277,48.564 24.416 C 45.547 30.201,46.293 33.622,50.936 35.302 C 65.414 40.537,60.210 64.000,44.571 64.000 C 29.046 64.000,23.900 42.476,37.738 35.417 C 42.698 32.886,44.040 28.021,40.571 25.143 C 39.271 24.063,38.857 21.135,38.857 13.003 C 38.857 0.973,39.017 1.138,30.085 3.931 M169.834 12.615 C 153.219 17.587,154.305 36.993,172.177 54.516 C 181.000 63.167,182.413 66.566,178.721 70.258 C 176.558 72.422,172.571 69.880,172.571 66.337 C 172.571 62.243,167.277 60.561,160.286 62.435 C 154.852 63.891,158.614 77.210,166.007 82.693 C 170.062 85.700,183.628 85.827,188.095 82.900 C 200.099 75.035,198.111 58.201,183.521 44.174 C 174.971 35.953,172.304 31.063,174.485 27.605 C 176.419 24.539,177.937 24.934,180.423 29.148 C 182.933 33.402,184.605 33.672,193.429 31.252 C 198.176 29.949,192.977 17.007,186.304 13.513 C 182.114 11.320,175.388 10.953,169.834 12.615 M110.908 18.517 C 110.936 21.218,111.890 28.417,113.028 34.513 C 114.741 43.690,114.830 45.699,113.548 46.191 C 111.236 47.079,111.680 51.075,114.295 52.906 C 116.050 54.136,117.120 57.441,118.846 66.971 C 122.440 86.805,120.888 84.714,131.736 84.331 L 141.120 84.000 143.770 69.316 C 146.081 56.516,146.815 54.293,149.486 51.995 C 152.516 49.389,152.526 49.332,150.373 46.954 C 148.230 44.586,148.237 44.325,150.797 30.370 C 153.847 13.740,153.838 13.714,145.198 13.714 C 137.227 13.714,138.008 12.231,134.717 33.615 C 133.309 42.765,131.864 49.962,131.507 49.607 C 131.150 49.252,129.571 41.160,128.000 31.624 L 125.143 14.286 118.000 13.945 L 110.857 13.605 110.908 18.517 M201.683 15.099 C 201.366 15.923,201.244 31.763,201.411 50.299 L 201.714 84.000 208.874 84.341 L 216.033 84.681 215.731 49.484 L 215.429 14.286 208.843 13.943 C 204.207 13.701,202.088 14.043,201.683 15.099 M222.119 15.450 C 221.753 16.405,222.569 23.404,223.933 31.004 C 226.182 43.533,226.248 45.005,224.635 46.787 C 222.155 49.527,222.415 51.276,225.513 52.687 C 227.845 53.750,228.422 55.448,230.261 66.663 C 233.364 85.586,232.654 84.571,242.789 84.571 C 253.101 84.571,252.618 85.218,255.499 67.584 C 257.293 56.604,258.025 54.332,260.239 52.881 C 263.252 50.907,263.622 48.245,261.137 46.412 C 259.614 45.288,259.679 43.770,261.708 33.145 C 262.969 26.546,264.000 19.475,264.000 17.431 L 264.000 13.714 257.115 13.714 C 248.743 13.714,249.293 12.646,245.647 36.000 L 242.970 53.143 240.406 37.143 C 236.169 10.707,237.553 13.714,229.627 13.714 C 224.562 13.714,222.612 14.165,222.119 15.450 M270.230 18.833 C 268.604 29.672,270.216 73.397,272.391 77.479 C 278.917 89.727,300.836 88.585,306.165 75.720 C 307.055 73.571,307.372 63.316,307.163 43.429 L 306.857 14.286 300.000 14.286 L 293.143 14.286 292.571 42.043 C 291.958 71.859,291.232 75.188,286.571 69.581 C 284.792 67.441,284.571 64.224,284.571 40.445 L 284.571 13.714 277.784 13.714 L 270.997 13.714 270.230 18.833 M313.863 16.286 C 312.872 19.983,313.014 81.466,314.018 82.989 C 315.353 85.015,319.561 85.900,323.950 85.077 L 328.000 84.317 328.000 71.441 C 328.000 57.657,328.977 55.068,333.624 56.543 C 335.736 57.213,335.955 58.390,336.250 70.637 L 336.571 84.000 343.714 84.340 L 350.857 84.680 350.857 49.197 L 350.857 13.714 344.022 13.714 C 335.905 13.714,336.135 13.257,335.712 30.286 C 335.437 41.368,335.346 41.726,332.701 42.100 C 328.640 42.674,328.037 40.675,328.018 26.571 L 328.000 13.714 321.276 13.714 C 315.269 13.714,314.479 13.989,313.863 16.286 M367.365 15.183 C 365.820 19.208,355.697 82.983,356.477 83.776 C 356.974 84.282,360.396 84.539,364.081 84.348 L 370.781 84.000 371.741 79.429 C 372.269 76.914,372.939 73.700,373.229 72.286 C 373.971 68.678,379.172 68.678,379.913 72.286 C 382.239 83.606,382.400 83.985,385.295 85.003 C 391.442 87.165,396.572 84.994,396.563 80.234 C 396.555 75.520,386.741 16.519,385.681 14.803 C 384.619 13.085,368.038 13.429,367.365 15.183 M36.654 41.868 C 33.152 46.321,33.541 52.002,37.626 56.088 C 46.840 65.302,60.580 52.155,52.488 41.868 C 50.511 39.354,49.204 38.857,44.571 38.857 C 39.939 38.857,38.632 39.354,36.654 41.868 M377.522 52.286 C 377.928 54.420,377.755 56.000,377.114 56.000 C 376.501 56.000,376.000 54.114,376.000 51.810 C 376.000 46.911,376.530 47.077,377.522 52.286 " stroke="none" fill="#000000" fill-rule="evenodd"></path></g></svg>